<svg width="80" height="80" viewBox="0 0 80 80" fill="none" xmlns="http://www.w3.org/2000/svg">
<circle cx="40" cy="40" r="39.5" fill="#0C1024" stroke="white"/>
<path d="M61.8825 30.6422C61.7818 28.3574 61.4123 26.7866 60.883 25.4256C60.337 23.9808 59.497 22.6873 58.3965 21.612C57.3212 20.52 56.0192 19.6715 54.5912 19.134C53.2222 18.6047 51.6597 18.2353 49.3749 18.1345C47.0731 18.0253 46.3423 18 40.5043 18C34.6662 18 33.9355 18.0253 31.6422 18.126C29.3574 18.2267 27.7866 18.5965 26.4259 19.1255C24.9808 19.6715 23.6873 20.5115 22.612 21.612C21.52 22.6873 20.6718 23.9893 20.134 25.4174C19.6047 26.7866 19.2353 28.3489 19.1345 30.6336C19.0253 32.9354 19 33.6662 19 39.5043C19 45.3423 19.0253 46.0731 19.126 48.3664C19.2267 50.6511 19.5965 52.2219 20.1258 53.583C20.6718 55.0277 21.52 56.3212 22.612 57.3965C23.6873 58.4885 24.9893 59.337 26.4174 59.8745C27.7866 60.4038 29.3489 60.7733 31.634 60.874C33.9269 60.9751 34.658 61 40.4961 61C46.3341 61 47.0649 60.9751 49.3582 60.874C51.6429 60.7733 53.2137 60.4038 54.5744 59.8745C57.4643 58.7572 59.749 56.4725 60.8663 53.583C61.3953 52.2137 61.7651 50.6511 61.8658 48.3664C61.9665 46.0731 61.9918 45.3423 61.9918 39.5043C61.9918 33.6662 61.9833 32.9354 61.8825 30.6422ZM58.0103 48.1984C57.9177 50.2984 57.565 51.4324 57.271 52.1884C56.5485 54.0617 55.0617 55.5485 53.1884 56.271C52.4324 56.565 51.2902 56.9177 49.1984 57.0099C46.9303 57.111 46.2501 57.136 40.5128 57.136C34.7755 57.136 34.0867 57.111 31.8269 57.0099C29.7269 56.9177 28.5929 56.565 27.8368 56.271C26.9046 55.9265 26.0561 55.3805 25.3673 54.6665C24.6533 53.9692 24.1073 53.1292 23.7628 52.197C23.4688 51.4409 23.1161 50.2984 23.0238 48.2069C22.9228 45.9389 22.8978 45.2583 22.8978 39.521C22.8978 33.7837 22.9228 33.0949 23.0238 30.8354C23.1161 28.7354 23.4688 27.6014 23.7628 26.8454C24.1073 25.9128 24.6533 25.0646 25.3759 24.3755C26.0728 23.6615 26.9128 23.1155 27.8454 22.7713C28.6014 22.4773 29.7439 22.1246 31.8354 22.032C34.1035 21.9313 34.784 21.906 40.521 21.906C46.2669 21.906 46.9471 21.9313 49.2069 22.032C51.3069 22.1246 52.4409 22.4773 53.197 22.7713C54.1292 23.1155 54.9777 23.6615 55.6665 24.3755C56.3805 25.0728 56.9265 25.9128 57.271 26.8454C57.565 27.6014 57.9177 28.7436 58.0103 30.8354C58.111 33.1035 58.1363 33.7837 58.1363 39.521C58.1363 45.2583 58.111 45.9303 58.0103 48.1984Z" fill="white"/>
<path d="M40.5044 28.458C34.4061 28.458 29.4583 33.4055 29.4583 39.5041C29.4583 45.6028 34.4061 50.5503 40.5044 50.5503C46.603 50.5503 51.5505 45.6028 51.5505 39.5041C51.5505 33.4055 46.603 28.458 40.5044 28.458ZM40.5044 46.6695C36.5481 46.6695 33.339 43.4607 33.339 39.5041C33.339 35.5476 36.5481 32.3388 40.5044 32.3388C44.461 32.3388 47.6697 35.5476 47.6697 39.5041C47.6697 43.4607 44.461 46.6695 40.5044 46.6695Z" fill="white"/>
<path d="M54.5663 28.0211C54.5663 29.4452 53.4116 30.5999 51.9872 30.5999C50.5631 30.5999 49.4084 29.4452 49.4084 28.0211C49.4084 26.5967 50.5631 25.4424 51.9872 25.4424C53.4116 25.4424 54.5663 26.5967 54.5663 28.0211Z" fill="white"/>
</svg>
