<svg width="80" height="80" viewBox="0 0 80 80" fill="none" xmlns="http://www.w3.org/2000/svg">
<circle cx="40" cy="40" r="39.5" fill="#0C1024" stroke="white"/>
<path d="M58.7586 28.7666C56.3008 28.7666 54.0331 27.9524 52.212 26.5788C50.1235 25.0042 48.6229 22.6944 48.0929 20.0322C47.9617 19.3744 47.8911 18.6956 47.8843 18H40.8633V37.1848L40.8549 47.6931C40.8549 50.5026 39.0254 52.8847 36.4894 53.7224C35.7534 53.9655 34.9585 54.0808 34.1308 54.0353C33.0744 53.9773 32.0843 53.6585 31.2239 53.1437C29.3927 52.0486 28.1512 50.0618 28.1175 47.789C28.0645 44.2369 30.9362 41.3408 34.4858 41.3408C35.1865 41.3408 35.8594 41.4552 36.4894 41.663V36.4193V34.5343C35.8249 34.4359 35.1486 34.3846 34.4648 34.3846C30.5795 34.3846 26.9458 35.9996 24.3484 38.9091C22.3851 41.1078 21.2075 43.913 21.0258 46.8545C20.7878 50.7187 22.2018 54.392 24.9439 57.1021C25.3468 57.5 25.7699 57.8693 26.2123 58.2099C28.5633 60.0192 31.4375 61 34.4648 61C35.1486 61 35.8249 60.9495 36.4894 60.8511C39.3173 60.4322 41.9265 59.1377 43.9857 57.1021C46.5158 54.6014 47.9138 51.2814 47.9289 47.7478L47.8928 32.0555C49.0998 32.9866 50.4195 33.7571 51.836 34.3552C54.039 35.2846 56.3748 35.7557 58.7788 35.7548V30.6567V28.7649C58.7805 28.7666 58.7603 28.7666 58.7586 28.7666Z" fill="white"/>
</svg>
