<svg width="80" height="80" viewBox="0 0 80 80" fill="none" xmlns="http://www.w3.org/2000/svg">
<circle cx="40" cy="40" r="39.5" fill="#0C1024" stroke="#B30802"/>
<path d="M62 28.2323C60.3638 28.95 58.6203 29.4257 56.8025 29.6567C58.6725 28.5402 60.0998 26.7857 60.7708 24.671C59.0273 25.7105 57.1022 26.4448 55.0508 26.8545C53.3952 25.0918 51.0357 24 48.4618 24C43.4677 24 39.4473 28.0535 39.4473 33.0228C39.4473 33.7378 39.5077 34.4252 39.6562 35.0797C32.157 34.714 25.5213 31.1198 21.0635 25.6445C20.2852 26.9948 19.8288 28.5402 19.8288 30.204C19.8288 33.328 21.4375 36.0972 23.8355 37.7005C22.3863 37.673 20.9645 37.2522 19.76 36.5895C19.76 36.617 19.76 36.6528 19.76 36.6885C19.76 41.072 22.8867 44.713 26.987 45.5518C26.2527 45.7525 25.4525 45.8487 24.622 45.8487C24.0445 45.8487 23.4615 45.8158 22.9142 45.6947C24.083 49.267 27.3995 51.8932 31.343 51.9785C28.274 54.3792 24.3773 55.8258 20.1588 55.8258C19.419 55.8258 18.7095 55.7927 18 55.702C21.9957 58.2788 26.7312 59.75 31.838 59.75C48.437 59.75 57.512 46 57.512 34.0815C57.512 33.6827 57.4982 33.2978 57.479 32.9155C59.2692 31.645 60.7735 30.0582 62 28.2323Z" fill="#B30802"/>
</svg>
